<svg width="311" height="50" viewBox="0 0 311 50" fill="none" xmlns="http://www.w3.org/2000/svg">
<path d="M2.27557 35V8.81818H12.7585C14.6847 8.81818 16.2912 9.10369 17.5781 9.67472C18.8651 10.2457 19.8324 11.0384 20.4801 12.0526C21.1278 13.0582 21.4517 14.2173 21.4517 15.5298C21.4517 16.5526 21.2472 17.4517 20.8381 18.2273C20.429 18.9943 19.8665 19.625 19.1506 20.1193C18.4432 20.6051 17.6335 20.9503 16.7216 21.1548V21.4105C17.7188 21.4531 18.652 21.7344 19.5213 22.2543C20.3991 22.7741 21.1108 23.5028 21.6562 24.4403C22.2017 25.3693 22.4744 26.4773 22.4744 27.7642C22.4744 29.1534 22.1293 30.3935 21.4389 31.4844C20.7571 32.5668 19.7472 33.4233 18.4091 34.054C17.071 34.6847 15.4219 35 13.4616 35H2.27557ZM7.81108 30.4744H12.3239C13.8665 30.4744 14.9915 30.1804 15.6989 29.5923C16.4063 28.9957 16.7599 28.2031 16.7599 27.2145C16.7599 26.4901 16.5852 25.8509 16.2358 25.2969C15.8864 24.7429 15.3878 24.3082 14.7401 23.9929C14.1009 23.6776 13.3381 23.5199 12.4517 23.5199H7.81108V30.4744ZM7.81108 19.7741H11.9148C12.6733 19.7741 13.3466 19.642 13.9347 19.3778C14.5313 19.1051 15 18.7216 15.3409 18.2273C15.6903 17.733 15.8651 17.1406 15.8651 16.4503C15.8651 15.5043 15.5284 14.7415 14.8551 14.1619C14.1903 13.5824 13.2443 13.2926 12.017 13.2926H7.81108V19.7741ZM29.3363 42.3636C28.646 42.3636 27.9982 42.3082 27.3931 42.1974C26.7965 42.0952 26.3022 41.9631 25.9102 41.8011L27.1374 37.7358C27.7766 37.9318 28.3519 38.0384 28.8633 38.0554C29.3832 38.0724 29.8306 37.9531 30.2056 37.6974C30.5891 37.4418 30.9002 37.0071 31.1388 36.3935L31.4585 35.5625L24.4144 15.3636H30.1417L34.207 29.7841H34.4116L38.5153 15.3636H44.2809L36.6488 37.1222C36.2823 38.179 35.7837 39.0994 35.1531 39.8835C34.5309 40.6761 33.7425 41.2855 32.788 41.7116C31.8335 42.1463 30.6829 42.3636 29.3363 42.3636ZM55.5021 8.81818H62.3288L69.5391 26.4091H69.8459L77.0561 8.81818H83.8828V35H78.5135V17.9588H78.2962L71.5206 34.8722H67.8643L61.0888 17.8949H60.8714V35H55.5021V8.81818ZM93.9407 35.3707C92.6879 35.3707 91.5714 35.1534 90.5913 34.7188C89.6112 34.2756 88.8356 33.6236 88.2646 32.7628C87.7021 31.8935 87.4208 30.8111 87.4208 29.5156C87.4208 28.4247 87.6211 27.5085 88.0217 26.767C88.4222 26.0256 88.9677 25.429 89.658 24.9773C90.3484 24.5256 91.1325 24.1847 92.0103 23.9545C92.8967 23.7244 93.8256 23.5625 94.7972 23.4688C95.9393 23.3494 96.8597 23.2386 97.5586 23.1364C98.2575 23.0256 98.7646 22.8636 99.0799 22.6506C99.3952 22.4375 99.5529 22.1222 99.5529 21.7045V21.6278C99.5529 20.8182 99.2972 20.1918 98.7859 19.7486C98.283 19.3054 97.5671 19.0838 96.6381 19.0838C95.658 19.0838 94.8782 19.3011 94.2987 19.7358C93.7191 20.1619 93.3356 20.6989 93.1481 21.3466L88.1112 20.9375C88.3668 19.7443 88.8697 18.7131 89.6197 17.8438C90.3697 16.9659 91.337 16.2926 92.5217 15.8239C93.7148 15.3466 95.0955 15.108 96.6637 15.108C97.7546 15.108 98.7987 15.2358 99.7958 15.4915C100.801 15.7472 101.692 16.1435 102.468 16.6804C103.252 17.2173 103.87 17.9077 104.321 18.7514C104.773 19.5866 104.999 20.5881 104.999 21.7557V35H99.8342V32.277H99.6808C99.3654 32.8906 98.9435 33.4318 98.4151 33.9006C97.8867 34.3608 97.2518 34.723 96.5103 34.9872C95.7688 35.2429 94.9123 35.3707 93.9407 35.3707ZM95.5004 31.6122C96.3015 31.6122 97.0089 31.4545 97.6225 31.1392C98.2362 30.8153 98.7177 30.3807 99.0671 29.8352C99.4165 29.2898 99.5913 28.6719 99.5913 27.9815V25.8977C99.4208 26.0085 99.1864 26.1108 98.8881 26.2045C98.5984 26.2898 98.2702 26.3707 97.9038 26.4474C97.5373 26.5156 97.1708 26.5795 96.8043 26.6392C96.4379 26.6903 96.1055 26.7372 95.8072 26.7798C95.168 26.8736 94.6097 27.0227 94.1325 27.2273C93.6552 27.4318 93.2844 27.7088 93.0202 28.0582C92.756 28.3991 92.6239 28.8253 92.6239 29.3366C92.6239 30.0781 92.8924 30.6449 93.4293 31.0369C93.9748 31.4205 94.6651 31.6122 95.5004 31.6122ZM109.224 35V15.3636H114.504V18.7898H114.708C115.066 17.571 115.667 16.6506 116.511 16.0284C117.355 15.3977 118.326 15.0824 119.426 15.0824C119.699 15.0824 119.993 15.0994 120.308 15.1335C120.623 15.1676 120.9 15.2145 121.139 15.2741V20.1065C120.883 20.0298 120.529 19.9616 120.078 19.902C119.626 19.8423 119.213 19.8125 118.838 19.8125C118.037 19.8125 117.321 19.9872 116.69 20.3366C116.068 20.6776 115.574 21.1548 115.207 21.7685C114.849 22.3821 114.67 23.0895 114.67 23.8906V35H109.224ZM128.889 29.3494L128.902 22.8168H129.695L135.984 15.3636H142.236L133.786 25.233H132.494L128.889 29.3494ZM123.955 35V8.81818H129.401V35H123.955ZM136.227 35L130.449 26.4474L134.08 22.5994L142.607 35H136.227ZM153.048 35.3835C151.028 35.3835 149.289 34.9744 147.832 34.1562C146.383 33.3295 145.267 32.1619 144.483 30.6534C143.699 29.1364 143.306 27.3423 143.306 25.2713C143.306 23.2514 143.699 21.4787 144.483 19.9531C145.267 18.4276 146.37 17.2386 147.794 16.3864C149.225 15.5341 150.904 15.108 152.831 15.108C154.126 15.108 155.332 15.3168 156.449 15.7344C157.574 16.1435 158.554 16.7614 159.389 17.5881C160.233 18.4148 160.889 19.4545 161.358 20.7074C161.826 21.9517 162.061 23.4091 162.061 25.0795V26.5753H145.48V23.2003H156.934C156.934 22.4162 156.764 21.7216 156.423 21.1165C156.082 20.5114 155.609 20.0384 155.004 19.6974C154.407 19.348 153.713 19.1733 152.92 19.1733C152.093 19.1733 151.36 19.3651 150.721 19.7486C150.091 20.1236 149.596 20.6307 149.238 21.2699C148.88 21.9006 148.697 22.6037 148.689 23.3793V26.5881C148.689 27.5597 148.868 28.3991 149.225 29.1065C149.592 29.8139 150.108 30.3594 150.772 30.7429C151.437 31.1264 152.225 31.3182 153.137 31.3182C153.743 31.3182 154.297 31.233 154.799 31.0625C155.302 30.892 155.733 30.6364 156.091 30.2955C156.449 29.9545 156.721 29.5369 156.909 29.0426L161.946 29.375C161.69 30.5852 161.166 31.642 160.373 32.5455C159.589 33.4403 158.575 34.1392 157.331 34.642C156.095 35.1364 154.667 35.3835 153.048 35.3835ZM176.059 15.3636V19.4545H164.234V15.3636H176.059ZM166.919 10.6591H172.365V28.9659C172.365 29.4687 172.441 29.8608 172.595 30.142C172.748 30.4148 172.961 30.6065 173.234 30.7173C173.515 30.8281 173.839 30.8835 174.206 30.8835C174.461 30.8835 174.717 30.8622 174.973 30.8196C175.228 30.7685 175.424 30.7301 175.561 30.7045L176.417 34.7571C176.145 34.8423 175.761 34.9403 175.267 35.0511C174.772 35.1705 174.172 35.2429 173.464 35.2685C172.152 35.3196 171.001 35.1449 170.012 34.7443C169.032 34.3437 168.27 33.7216 167.724 32.8778C167.179 32.0341 166.91 30.9687 166.919 29.6818V10.6591ZM179.607 35V15.3636H185.053V35H179.607ZM182.343 12.8324C181.533 12.8324 180.838 12.5639 180.259 12.027C179.688 11.4815 179.402 10.8295 179.402 10.071C179.402 9.32102 179.688 8.67756 180.259 8.14062C180.838 7.59517 181.533 7.32244 182.343 7.32244C183.152 7.32244 183.843 7.59517 184.414 8.14062C184.993 8.67756 185.283 9.32102 185.283 10.071C185.283 10.8295 184.993 11.4815 184.414 12.027C183.843 12.5639 183.152 12.8324 182.343 12.8324ZM194.862 23.6477V35H189.415V15.3636H194.606V18.8281H194.836C195.271 17.6861 195.999 16.7827 197.022 16.1179C198.045 15.4446 199.285 15.108 200.742 15.108C202.106 15.108 203.295 15.4062 204.309 16.0028C205.323 16.5994 206.112 17.4517 206.674 18.5597C207.237 19.6591 207.518 20.9716 207.518 22.4972V35H202.072V23.4688C202.08 22.267 201.773 21.3295 201.151 20.6562C200.529 19.9744 199.673 19.6335 198.582 19.6335C197.849 19.6335 197.201 19.7912 196.638 20.1065C196.085 20.4219 195.65 20.8821 195.335 21.4872C195.028 22.0838 194.87 22.804 194.862 23.6477ZM220.657 42.7727C218.892 42.7727 217.38 42.5298 216.118 42.044C214.865 41.5668 213.868 40.9148 213.127 40.0881C212.385 39.2614 211.904 38.3324 211.682 37.3011L216.719 36.6236C216.873 37.0156 217.115 37.3821 217.448 37.723C217.78 38.0639 218.219 38.3366 218.765 38.5412C219.319 38.7543 219.992 38.8608 220.784 38.8608C221.969 38.8608 222.945 38.571 223.712 37.9915C224.488 37.4205 224.875 36.4616 224.875 35.1151V31.5227H224.645C224.407 32.0682 224.049 32.5838 223.571 33.0696C223.094 33.5554 222.48 33.9517 221.73 34.2585C220.98 34.5653 220.086 34.7188 219.046 34.7188C217.571 34.7188 216.229 34.3778 215.019 33.696C213.817 33.0057 212.858 31.9531 212.142 30.5384C211.435 29.1151 211.081 27.3168 211.081 25.1435C211.081 22.919 211.444 21.0611 212.168 19.5696C212.892 18.0781 213.855 16.9616 215.057 16.2202C216.267 15.4787 217.593 15.108 219.033 15.108C220.132 15.108 221.053 15.2955 221.794 15.6705C222.536 16.0369 223.132 16.4972 223.584 17.0511C224.044 17.5966 224.398 18.1335 224.645 18.6619H224.85V15.3636H230.257V35.1918C230.257 36.8622 229.848 38.2599 229.03 39.3849C228.212 40.5099 227.078 41.3537 225.63 41.9162C224.189 42.4872 222.532 42.7727 220.657 42.7727ZM220.772 30.6278C221.65 30.6278 222.391 30.4105 222.996 29.9759C223.61 29.5327 224.078 28.902 224.402 28.0838C224.735 27.2571 224.901 26.2685 224.901 25.1179C224.901 23.9673 224.739 22.9702 224.415 22.1264C224.091 21.2741 223.623 20.6136 223.009 20.1449C222.395 19.6761 221.65 19.4418 220.772 19.4418C219.877 19.4418 219.123 19.6847 218.509 20.1705C217.895 20.6477 217.431 21.3125 217.115 22.1648C216.8 23.017 216.642 24.0014 216.642 25.1179C216.642 26.2514 216.8 27.2315 217.115 28.0582C217.439 28.8764 217.904 29.5114 218.509 29.9631C219.123 30.4062 219.877 30.6278 220.772 30.6278Z" fill="black"/>
<path d="M249.64 35.88C247.773 35.88 246.187 35.4133 244.88 34.48C243.6 33.5467 242.627 32.3467 241.96 30.88C241.293 29.3867 240.96 27.7867 240.96 26.08C240.96 24.3733 241.307 22.68 242 21C242.693 19.32 243.76 17.84 245.2 16.56C246.64 15.28 248.453 14.3867 250.64 13.88C250.933 13.8267 251.227 13.7867 251.52 13.76C251.813 13.7067 252.133 13.68 252.48 13.68C253.067 13.68 253.64 13.76 254.2 13.92C254.76 14.08 255.24 14.3733 255.64 14.8C255.933 15.0667 256.08 15.2533 256.08 15.36C256.08 15.4667 256.053 15.52 256 15.52C255.92 15.52 255.813 15.48 255.68 15.4C255.573 15.32 255.453 15.2667 255.32 15.24C254.84 15.0533 254.307 14.96 253.72 14.96C253.56 14.96 253.4 14.9733 253.24 15C253.107 15 252.973 15.0133 252.84 15.04C251.267 15.4133 249.853 16.0533 248.6 16.96C247.373 17.8667 246.32 18.9467 245.44 20.2C244.587 21.4533 243.933 22.7733 243.48 24.16C243.027 25.52 242.8 26.84 242.8 28.12C242.8 29.3733 243.027 30.52 243.48 31.56C243.933 32.6 244.627 33.4267 245.56 34.04C246.52 34.6533 247.733 34.96 249.2 34.96C249.6 34.96 250.027 34.9333 250.48 34.88C250.933 34.8267 251.413 34.7467 251.92 34.64C252.987 34.4 254.067 33.88 255.16 33.08C256.28 32.3067 257.347 31.3467 258.36 30.2C259.373 29.0267 260.267 27.76 261.04 26.4C261.84 25.0133 262.467 23.5867 262.92 22.12C263.4 20.6533 263.64 19.2267 263.64 17.84C263.64 15.1733 262.893 13.1867 261.4 11.88C259.933 10.5467 257.947 9.88 255.44 9.88C253.787 9.88 252.133 10.1867 250.48 10.8C248.853 11.3867 247.453 12.1067 246.28 12.96C245.08 13.7867 243.987 14.7733 243 15.92C242.04 17.04 241.253 18.24 240.64 19.52C240.027 20.7733 239.653 22.04 239.52 23.32C239.52 23.6133 239.453 23.76 239.32 23.76C239.213 23.76 239.107 23.64 239 23.4C238.893 23.1333 238.84 22.8667 238.84 22.6C238.84 21.1067 239.147 19.68 239.76 18.32C240.4 16.96 241.253 15.7067 242.32 14.56C243.387 13.4133 244.6 12.4267 245.96 11.6C247.32 10.7467 248.733 10.0933 250.2 9.64C251.693 9.16 253.147 8.92 254.56 8.92C256.693 8.89333 258.587 9.28 260.24 10.08C261.92 10.88 263.24 12.04 264.2 13.56C265.16 15.08 265.64 16.92 265.64 19.08C265.64 21.1867 265.24 23.16 264.44 25C263.667 26.84 262.627 28.4933 261.32 29.96C260.04 31.4 258.613 32.6 257.04 33.56C255.493 34.52 253.947 35.1733 252.4 35.52C251.893 35.6533 251.413 35.7467 250.96 35.8C250.533 35.8533 250.093 35.88 249.64 35.88ZM265.123 33.52C264.936 33.52 264.883 33.4267 264.963 33.24C265.043 33.08 265.19 32.72 265.403 32.16C265.616 31.5733 265.856 30.88 266.123 30.08C266.416 29.28 266.71 28.4533 267.003 27.6C267.296 26.7467 267.563 25.9467 267.803 25.2C268.07 24.4533 268.283 23.8667 268.443 23.44C268.496 23.28 268.55 23.0533 268.603 22.76C268.656 22.44 268.763 22.16 268.923 21.92C269.11 21.6533 269.416 21.52 269.843 21.52C270.643 21.52 271.043 21.7067 271.043 22.08C271.043 22.2133 270.976 22.44 270.843 22.76C270.523 23.48 270.176 24.3067 269.803 25.24C269.43 26.1733 269.096 27.0533 268.803 27.88C268.51 28.7067 268.283 29.3467 268.123 29.8C268.39 29.4267 268.816 28.8933 269.403 28.2C270.016 27.5067 270.696 26.76 271.443 25.96C272.19 25.16 272.963 24.3867 273.763 23.64C274.59 22.8933 275.35 22.2933 276.043 21.84C276.763 21.36 277.376 21.12 277.883 21.12C278.523 21.12 278.843 21.4667 278.843 22.16C278.843 22.4 278.776 22.76 278.643 23.24C278.403 23.9067 278.096 24.56 277.723 25.2C277.35 25.8133 277.016 26.4667 276.723 27.16C276.216 28.4133 275.923 29.4267 275.843 30.2C275.816 30.3067 275.803 30.4133 275.803 30.52C275.803 30.6 275.803 30.6933 275.803 30.8C275.803 31.8667 276.163 32.4 276.883 32.4C277.283 32.4 277.816 32.16 278.483 31.68C279.15 31.2 279.83 30.6267 280.523 29.96C281.243 29.2933 281.883 28.6533 282.443 28.04C283.003 27.4 283.39 26.92 283.603 26.6C283.683 26.52 283.763 26.48 283.843 26.48C283.95 26.48 284.03 26.52 284.083 26.6C284.163 26.68 284.176 26.7867 284.123 26.92C283.883 27.3733 283.47 27.9467 282.883 28.64C282.323 29.3067 281.696 29.9867 281.003 30.68C280.31 31.3467 279.63 31.92 278.963 32.4C278.563 32.6667 278.07 32.9067 277.483 33.12C276.896 33.3333 276.31 33.4267 275.723 33.4C274.976 33.32 274.443 33.0667 274.123 32.64C273.803 32.1867 273.643 31.6533 273.643 31.04C273.643 30.32 273.776 29.56 274.043 28.76C274.336 27.9333 274.656 27.16 275.003 26.44C275.35 25.72 275.63 25.1733 275.843 24.8C276.056 24.3733 276.163 24.04 276.163 23.8C276.163 23.5867 276.07 23.48 275.883 23.48C275.696 23.48 275.416 23.6 275.043 23.84C274.67 24.08 274.163 24.4933 273.523 25.08C272.936 25.5867 272.31 26.2533 271.643 27.08C270.976 27.88 270.323 28.7067 269.683 29.56C269.07 30.4133 268.523 31.1467 268.043 31.76C267.59 32.3733 267.27 32.7333 267.083 32.84C266.95 32.92 266.643 33.0533 266.163 33.24C265.71 33.4267 265.363 33.52 265.123 33.52ZM285.535 33.4C284.415 33.4 283.628 33.12 283.175 32.56C282.748 32 282.535 31.3067 282.535 30.48C282.535 29.7067 282.708 28.7333 283.055 27.56C283.428 26.3867 283.908 25.12 284.495 23.76C285.082 22.4 285.708 21.0533 286.375 19.72C287.068 18.36 287.748 17.12 288.415 16C289.108 14.8533 289.708 13.9333 290.215 13.24C290.722 12.5733 291.268 11.9067 291.855 11.24C292.442 10.5733 293.095 10.0133 293.815 9.56C294.535 9.10667 295.348 8.88 296.255 8.88C296.868 8.88 297.388 9.05333 297.815 9.4C298.268 9.72 298.495 10.2133 298.495 10.88C298.495 11.1467 298.442 11.4533 298.335 11.8C298.255 12.1467 298.108 12.5067 297.895 12.88C296.268 15.7067 294.322 18.32 292.055 20.72C289.815 23.12 287.442 25.3467 284.935 27.4C284.828 27.8 284.722 28.16 284.615 28.48C284.535 28.8 284.468 29.0533 284.415 29.24C284.388 29.3733 284.375 29.52 284.375 29.68C284.375 29.8133 284.375 29.9467 284.375 30.08C284.375 30.72 284.482 31.28 284.695 31.76C284.908 32.24 285.268 32.48 285.775 32.48C286.255 32.48 286.842 32.2533 287.535 31.8C288.255 31.32 288.975 30.7467 289.695 30.08C290.415 29.3867 291.068 28.72 291.655 28.08C292.242 27.44 292.655 26.9467 292.895 26.6C292.975 26.52 293.055 26.48 293.135 26.48C293.242 26.48 293.322 26.5333 293.375 26.64C293.455 26.7467 293.455 26.88 293.375 27.04C293.108 27.4933 292.682 28.0533 292.095 28.72C291.508 29.3867 290.855 30.0667 290.135 30.76C289.415 31.4267 288.722 32.0133 288.055 32.52C287.228 33.1067 286.388 33.4 285.535 33.4ZM285.495 25.8C286.508 25.1067 287.562 24.2133 288.655 23.12C289.748 22 290.815 20.7867 291.855 19.48C292.922 18.1733 293.882 16.88 294.735 15.6C295.615 14.32 296.322 13.16 296.855 12.12C297.015 11.8267 297.122 11.5733 297.175 11.36C297.255 11.12 297.295 10.9067 297.295 10.72C297.295 10.2133 297.082 9.96 296.655 9.96C296.282 9.96 295.815 10.16 295.255 10.56C293.815 11.68 292.482 13.12 291.255 14.88C290.028 16.6133 288.935 18.44 287.975 20.36C287.015 22.28 286.188 24.0933 285.495 25.8ZM290.67 47.68C290.35 47.6 290.07 47.52 289.83 47.44C289.323 47.1733 288.963 46.8667 288.75 46.52C288.537 46.2 288.43 45.8533 288.43 45.48C288.43 44.8667 288.643 44.2 289.07 43.48C289.47 42.7867 290.003 42.0667 290.67 41.32C291.337 40.52 292.177 39.7067 293.19 38.88C294.23 38.0533 295.31 37.2533 296.43 36.48C297.55 35.7333 298.537 35.08 299.39 34.52C299.843 33.5867 300.31 32.5867 300.79 31.52C301.297 30.4533 301.777 29.4267 302.23 28.44C302.683 27.4267 303.07 26.5067 303.39 25.68C303.737 24.8533 303.99 24.2133 304.15 23.76C303.723 24.2667 303.23 24.9067 302.67 25.68C302.11 26.4267 301.497 27.2267 300.83 28.08C300.163 28.9067 299.47 29.6933 298.75 30.44C298.057 31.1867 297.337 31.8 296.59 32.28C295.843 32.7333 295.11 32.96 294.39 32.96C293.323 32.96 292.577 32.6933 292.15 32.16C291.75 31.6 291.55 30.9467 291.55 30.2C291.55 29.6667 291.617 29.1333 291.75 28.6C291.91 28.0667 292.11 27.5733 292.35 27.12C292.51 26.8 292.763 26.3733 293.11 25.84C293.457 25.3067 293.857 24.76 294.31 24.2C294.763 23.64 295.217 23.1733 295.67 22.8C296.15 22.4267 296.603 22.24 297.03 22.24C297.537 22.24 297.923 22.4267 298.19 22.8C298.457 23.1467 298.483 23.3867 298.27 23.52C297.843 23.8133 297.31 24.2667 296.67 24.88C296.057 25.4667 295.443 26.1467 294.83 26.92C294.67 27.1333 294.47 27.4667 294.23 27.92C294.017 28.3733 293.817 28.8667 293.63 29.4C293.443 29.9067 293.35 30.3733 293.35 30.8C293.35 30.9867 293.377 31.1733 293.43 31.36C293.483 31.52 293.577 31.64 293.71 31.72C293.923 31.88 294.163 31.96 294.43 31.96C294.803 31.96 295.217 31.84 295.67 31.6C296.15 31.36 296.603 31.0533 297.03 30.68C298.523 29.24 299.857 27.7333 301.03 26.16C302.203 24.5867 303.443 23.0267 304.75 21.48C304.83 21.2133 305.057 21.08 305.43 21.08C305.857 21.08 306.297 21.2133 306.75 21.48C307.23 21.72 307.43 21.92 307.35 22.08C307.11 22.6133 306.79 23.32 306.39 24.2C306.017 25.08 305.603 26.0267 305.15 27.04C304.697 28.0533 304.243 29.0667 303.79 30.08C303.337 31.0667 302.923 31.96 302.55 32.76C302.87 32.6 303.443 32.2 304.27 31.56C305.097 30.92 306.003 30.1467 306.99 29.24C307.977 28.3067 308.87 27.3467 309.67 26.36C309.83 26.2 309.95 26.12 310.03 26.12C310.19 26.12 310.27 26.2267 310.27 26.44C310.27 26.6267 310.19 26.84 310.03 27.08C309.63 27.6133 309.07 28.24 308.35 28.96C307.657 29.68 306.897 30.4133 306.07 31.16C305.27 31.88 304.483 32.5333 303.71 33.12C302.937 33.7333 302.27 34.2 301.71 34.52C300.883 36.28 300.083 37.9333 299.31 39.48C298.537 41.0533 297.83 42.32 297.19 43.28C296.763 43.9467 296.243 44.6267 295.63 45.32C295.017 46.0133 294.35 46.5867 293.63 47.04C292.91 47.52 292.15 47.76 291.35 47.76C291.243 47.76 291.137 47.7467 291.03 47.72C290.923 47.72 290.803 47.7067 290.67 47.68ZM290.79 46.8C291.003 46.8 291.257 46.7333 291.55 46.6C291.87 46.4667 292.203 46.2533 292.55 45.96C293.563 45.1333 294.417 44.16 295.11 43.04C295.803 41.9467 296.417 40.7867 296.95 39.56C297.51 38.3333 298.07 37.16 298.63 36.04C297.59 36.8133 296.417 37.72 295.11 38.76C293.803 39.8267 292.617 40.88 291.55 41.92C290.91 42.56 290.443 43.1867 290.15 43.8C289.857 44.44 289.71 45 289.71 45.48C289.71 46.36 290.07 46.8 290.79 46.8Z" fill="black"/>
</svg>
