<?xml version="1.0" encoding="UTF-8"?>
<svg version="1.1" xmlns="http://www.w3.org/2000/svg" width="500" height="500">
<path d="M0 0 C2.7415171 2.35897983 4.26702231 3.99805206 5.6875 7.3125 C5.875 10.625 5.875 10.625 5.6875 13.3125 C6.574375 12.796875 7.46125 12.28125 8.375 11.75 C11.88773331 10.2256063 13.13456507 10.16302105 16.6875 11.3125 C17.1825 12.7975 17.1825 12.7975 17.6875 14.3125 C18.574375 13.631875 19.46125 12.95125 20.375 12.25 C23.6875 10.3125 23.6875 10.3125 26.5625 10.5625 C27.614375 10.93375 27.614375 10.93375 28.6875 11.3125 C29.6875 14.3125 29.6875 14.3125 28.47265625 17.23046875 C27.90417969 18.30941406 27.33570313 19.38835937 26.75 20.5 C26.18410156 21.58667969 25.61820312 22.67335937 25.03515625 23.79296875 C24.36806641 25.04013672 24.36806641 25.04013672 23.6875 26.3125 C25.0075 26.3125 26.3275 26.3125 27.6875 26.3125 C27.955625 25.60351562 28.22375 24.89453125 28.5 24.1640625 C29.72714985 21.21728819 31.14750373 18.48259323 32.6875 15.6875 C33.203125 14.74648437 33.71875 13.80546875 34.25 12.8359375 C35.3234045 10.95164591 36.48458661 9.11687008 37.6875 7.3125 C38.3475 7.3125 39.0075 7.3125 39.6875 7.3125 C39.6875 6.6525 39.6875 5.9925 39.6875 5.3125 C44.60439351 0.77382906 49.85708902 -1.59619642 56.5625 -1.8125 C57.59375 -1.77125 58.625 -1.73 59.6875 -1.6875 C60.1825 0.2925 60.1825 0.2925 60.6875 2.3125 C57.38607556 4.51344963 56.49380045 4.51660344 52.6875 4.375 C49.5533849 4.26773118 47.70389328 4.30703557 44.6875 5.3125 C43.95550742 6.95152687 43.30836618 8.62823535 42.6875 10.3125 C41.20838056 13.2830528 39.63115744 16.20092449 38.0625 19.125 C37.64226562 19.91326172 37.22203125 20.70152344 36.7890625 21.51367188 C35.7574991 23.44785326 34.72358828 25.38073983 33.6875 27.3125 C35.0075 26.9825 36.3275 26.6525 37.6875 26.3125 C36.53576645 28.78050047 35.63966435 30.36033565 33.6875 32.3125 C29.95453674 32.69536803 28.91123677 32.46165785 25.6875 30.3125 C24.6975 30.9725 23.7075 31.6325 22.6875 32.3125 C20.0625 32.5 20.0625 32.5 17.6875 32.3125 C16.6875 31.3125 16.6875 31.3125 16.3125 28.8125 C16.83696024 23.91753777 19.11898169 20.44047585 21.6875 16.3125 C15.69520801 20.93682459 11.91935596 25.46034385 8.6875 32.3125 C7.0375 32.3125 5.3875 32.3125 3.6875 32.3125 C2.6875 29.3125 2.6875 29.3125 4.12109375 26.17578125 C4.77885973 24.9864872 5.44727815 23.80303629 6.125 22.625 C6.46337891 22.01849609 6.80175781 21.41199219 7.15039062 20.78710938 C7.98707915 19.2904975 8.83612831 17.80080811 9.6875 16.3125 C7.747991 16.50438156 7.747991 16.50438156 5.6875 17.3125 C4.34518558 19.15233424 4.34518558 19.15233424 3.4375 21.375 C3.10234375 22.10847656 2.7671875 22.84195313 2.421875 23.59765625 C2.17953125 24.16355469 1.9371875 24.72945313 1.6875 25.3125 C1.0275 25.3125 0.3675 25.3125 -0.3125 25.3125 C-0.3125 25.9725 -0.3125 26.6325 -0.3125 27.3125 C-4.25226743 31.03778152 -8.49993005 32.71045894 -13.875 33 C-18.70372435 32.75185722 -21.61963044 31.61862724 -24.99609375 28.14453125 C-27.78316504 24.26578811 -28.69574414 20.78229554 -27.9609375 16.046875 C-25.93767776 8.88014772 -21.94725139 3.5327385 -15.4375 -0.125 C-9.95529728 -2.54177257 -5.47901668 -2.79119718 0 0 Z M-20.125 6.9375 C-22.24326862 11.17403724 -22.8318333 15.68558105 -21.91015625 20.34765625 C-20.74730578 23.58849987 -19.37283898 25.26759657 -16.625 27.3125 C-12.19359341 28.65028312 -9.82827378 28.40502591 -5.3125 27.3125 C-2.38162793 25.05798302 -1.48435712 23.82807135 -0.3125 20.3125 C0.08912118 15.75564431 0.22807047 11.64970064 -1.5 7.375 C-3.59787683 4.98776085 -5.42901572 3.64874881 -8.3125 2.3125 C-13.28757992 2.3125 -16.40926932 3.60615525 -20.125 6.9375 Z " fill="#191919" transform="translate(363.3125,232.6875)"/>
<path d="M0 0 C2.97 0 5.94 0 9 0 C11.08153611 4.65867606 12.81722783 9.31271194 14.3515625 14.1796875 C14.85136351 15.99430469 14.85136351 15.99430469 16 17 C16.34933594 15.85660156 16.69867188 14.71320313 17.05859375 13.53515625 C17.51806463 12.04422012 17.97770901 10.55333745 18.4375 9.0625 C18.66759766 8.30775391 18.89769531 7.55300781 19.13476562 6.77539062 C20.88671875 1.11328125 20.88671875 1.11328125 22 0 C23.51928038 -0.07179964 25.04167482 -0.08392007 26.5625 -0.0625 C27.38878906 -0.05347656 28.21507812 -0.04445312 29.06640625 -0.03515625 C29.70449219 -0.02355469 30.34257812 -0.01195312 31 0 C31.02465746 4.1117256 31.04283959 8.22342278 31.05493164 12.33520508 C31.0599708 13.73495228 31.06680216 15.1346942 31.07543945 16.53442383 C31.0875232 18.54245777 31.09269807 20.55052957 31.09765625 22.55859375 C31.10551147 24.37315063 31.10551147 24.37315063 31.11352539 26.22436523 C31 29 31 29 30 30 C28.02 30 26.04 30 24 30 C23.505 23.565 23.505 23.565 23 17 C22.0409375 19.9390625 22.0409375 19.9390625 21.0625 22.9375 C19.125 28.875 19.125 28.875 18 30 C16.33382885 30.04063832 14.66611905 30.042721 13 30 C10.36634013 25.0778687 8.35524176 20.42096702 7 15 C7.01160156 15.99902344 7.02320313 16.99804688 7.03515625 18.02734375 C7.04417969 19.31769531 7.05320313 20.60804688 7.0625 21.9375 C7.07410156 23.22527344 7.08570313 24.51304687 7.09765625 25.83984375 C7 29 7 29 6 30 C3.5 30.125 3.5 30.125 1 30 C0 29 0 29 -0.11352539 26.22436523 C-0.10828857 25.01466064 -0.10305176 23.80495605 -0.09765625 22.55859375 C-0.09443359 21.25341797 -0.09121094 19.94824219 -0.08789062 18.60351562 C-0.07953401 17.2148431 -0.07106905 15.82617123 -0.0625 14.4375 C-0.05748666 13.04492344 -0.05292347 11.65234519 -0.04882812 10.25976562 C-0.03699434 6.8398013 -0.0205088 3.41992156 0 0 Z " fill="#181818" transform="translate(132,231)"/>
<path d="M0 0 C0.77279297 -0.02900391 1.54558594 -0.05800781 2.34179688 -0.08789062 C6.11830946 -0.13010444 8.06609937 -0.12998342 11.2109375 2.109375 C13.31798421 5.25322248 13.02403145 7.61065406 12.6875 11.3125 C12.3575 12.3025 12.0275 13.2925 11.6875 14.3125 C12.43 14.8384375 12.43 14.8384375 13.1875 15.375 C15.51600957 18.3826582 15.13322235 20.61937194 14.6875 24.3125 C12.55070715 27.70189556 11.5100233 29.03832557 7.6875 30.3125 C4.96823978 30.40860691 2.28085046 30.45183225 -0.4375 30.4375 C-1.17871094 30.44136719 -1.91992188 30.44523437 -2.68359375 30.44921875 C-8.1858402 30.4391598 -8.1858402 30.4391598 -9.3125 29.3125 C-9.41243532 27.2519469 -9.44330906 25.1879741 -9.4453125 23.125 C-9.44660156 21.86945313 -9.44789062 20.61390625 -9.44921875 19.3203125 C-9.44712402 18.66321289 -9.4450293 18.00611328 -9.44287109 17.32910156 C-9.43752234 15.32088665 -9.44281691 13.31289541 -9.44921875 11.3046875 C-9.44792969 10.04914063 -9.44664063 8.79359375 -9.4453125 7.5 C-9.44362061 5.75783203 -9.44362061 5.75783203 -9.44189453 3.98046875 C-9.17359025 -1.55166184 -4.43813486 0.05470174 0 0 Z M-2.3125 6.3125 C-1.9825 7.9625 -1.6525 9.6125 -1.3125 11.3125 C0.9975 11.3125 3.3075 11.3125 5.6875 11.3125 C5.6875 9.6625 5.6875 8.0125 5.6875 6.3125 C3.0475 6.3125 0.4075 6.3125 -2.3125 6.3125 Z M-2.3125 17.3125 C-1.9825 19.6225 -1.6525 21.9325 -1.3125 24.3125 C2.10406024 24.47927282 2.10406024 24.47927282 5.6875 24.3125 C6.3475 23.6525 7.0075 22.9925 7.6875 22.3125 C7.6875 20.9925 7.6875 19.6725 7.6875 18.3125 C5.40044169 17.16897084 4.09485238 17.20915561 1.5625 17.25 C-0.355625 17.2809375 -0.355625 17.2809375 -2.3125 17.3125 Z " fill="#191919" transform="translate(81.3125,230.6875)"/>
<path d="M0 0 C1.98 0 3.96 0 6 0 C5.835 0.94875 5.67 1.8975 5.5 2.875 C5.02681778 5.83238888 4.99186267 7.90642073 5.25 10.875 C5 14 5 14 3.3125 16.3125 C0.80401508 18.14301602 -0.94082833 18.66009204 -4 19 C-3.37351562 19.12117188 -2.74703125 19.24234375 -2.1015625 19.3671875 C-1.28429687 19.53476563 -0.46703125 19.70234375 0.375 19.875 C1.59316406 20.11863281 1.59316406 20.11863281 2.8359375 20.3671875 C5 21 5 21 7 23 C7.4423824 26.98144156 7.66305693 29.13116678 5.1875 32.375 C0.85353828 35.59451442 -3.80445821 35.53778415 -9 35 C-11.41869578 33.8410416 -13.12322096 32.87677904 -15 31 C-14.71269945 28.66055264 -14.38063221 26.3260857 -14 24 C-13.34 24 -12.68 24 -12 24 C-12.185625 23.05125 -12.37125 22.1025 -12.5625 21.125 C-13 18 -13 18 -12 16 C-12.33 15.34 -12.66 14.68 -13 14 C-13.56818182 7.86363636 -13.56818182 7.86363636 -11.4375 4.625 C-8.28388966 2.52259311 -5.75406042 2.20855891 -2 2 C-1.34 2.33 -0.68 2.66 0 3 C0 2.01 0 1.02 0 0 Z M-6 8 C-6.33 8.99 -6.66 9.98 -7 11 C-6.67 11.66 -6.34 12.32 -6 13 C-4.68 12.67 -3.36 12.34 -2 12 C-2.33 10.68 -2.66 9.36 -3 8 C-3.99 8 -4.98 8 -6 8 Z M-8 26 C-8 26.99 -8 27.98 -8 29 C-5.69 29 -3.38 29 -1 29 C-0.67 28.01 -0.34 27.02 0 26 C-2.64 26 -5.28 26 -8 26 Z " fill="#181818" transform="translate(317,235)"/>
<path d="M0 0 C2.5 0.125 2.5 0.125 3.5 1.125 C3.73481693 3.30792774 3.91363323 5.49703174 4.0625 7.6875 C4.14628906 8.88503906 4.23007813 10.08257812 4.31640625 11.31640625 C4.37699219 12.24324219 4.43757812 13.17007813 4.5 14.125 C5.08265625 13.30644531 5.6653125 12.48789063 6.265625 11.64453125 C8.5 9.125 8.5 9.125 12.25 8.8125 C13.3225 8.915625 14.395 9.01875 15.5 9.125 C14.99477778 13.50359255 12.32172778 15.94151224 9.5 19.125 C12.3814281 24.59426127 12.3814281 24.59426127 16.5 29.125 C16.17 30.115 15.84 31.105 15.5 32.125 C12.8125 32.5 12.8125 32.5 9.5 32.125 C7.43601924 30.301017 6.10958947 28.39736161 4.5 26.125 C3.84 28.105 3.18 30.085 2.5 32.125 C0.83388095 32.167721 -0.83382885 32.16563832 -2.5 32.125 C-4.38319268 30.24180732 -3.63054285 27.00569863 -3.6328125 24.5 C-3.63376923 23.83790527 -3.63472595 23.17581055 -3.63571167 22.49365234 C-3.63639326 21.09147039 -3.63454042 19.6892853 -3.63037109 18.28710938 C-3.62502246 16.13404287 -3.6303167 13.98118498 -3.63671875 11.828125 C-3.63605796 10.46874954 -3.63477679 9.1093742 -3.6328125 7.75 C-3.63168457 6.50476563 -3.63055664 5.25953125 -3.62939453 3.9765625 C-3.4567941 0.1728397 -3.4567941 0.1728397 0 0 Z " fill="#1A1A1A" transform="translate(210.5,228.875)"/>
<path d="M0 0 C2.31 0 4.62 0 7 0 C8.65 3.96 10.3 7.92 12 12 C13.32 8.04 14.64 4.08 16 0 C18.31 0 20.62 0 23 0 C22.42260863 6.14210529 20.57960705 11.40868166 18.3125 17.125 C17.98572266 18.00542969 17.65894531 18.88585937 17.32226562 19.79296875 C15.11230642 25.39603932 13.11405408 28.71623896 8 32 C4.1875 32.375 4.1875 32.375 1 32 C0 31 0 31 -0.0625 28.4375 C-0.041875 27.633125 -0.02125 26.82875 0 26 C2.31 25.34 4.62 24.68 7 24 C6.38940559 19.01476717 4.88687052 14.88515336 2.9375 10.3125 C0 3.39559497 0 3.39559497 0 0 Z " fill="#181818" transform="translate(97,238)"/>
<path d="M0 0 C2.4375 1.8125 2.4375 1.8125 4 5 C4.31955202 9.02321229 4.23117244 12.97374667 4 17 C4.66 17 5.32 17 6 17 C6 18.98 6 20.96 6 23 C2.66666667 23 -0.66666667 23 -4 23 C-4.67160156 23.03480469 -5.34320313 23.06960938 -6.03515625 23.10546875 C-11.35828877 23.32085561 -11.35828877 23.32085561 -14 22 C-15.63136948 18.73726105 -15.65538973 15.55995783 -15 12 C-12.19188741 8.63026489 -8.14213956 8.03553489 -4 7 C-6.56148445 6.92884765 -8.71212955 6.9177513 -11.1875 7.625 C-11.785625 7.74875 -12.38375 7.8725 -13 8 C-15 6 -15 6 -15.0625 4.0625 C-13.65443857 1.32920429 -11.79652807 0.52999811 -8.97265625 -0.51953125 C-5.64052038 -1.33112078 -3.25588759 -0.98290946 0 0 Z M-8 14 C-7.67 15.32 -7.34 16.64 -7 18 C-5.68 17.34 -4.36 16.68 -3 16 C-3 15.01 -3 14.02 -3 13 C-5.9254644 12.7763932 -5.9254644 12.7763932 -8 14 Z " fill="#191919" transform="translate(182,238)"/>
<path d="M0 0 C3.20577872 1.808388 3.82003953 2.46011859 5 6 C5.03954234 8.33299825 5.04401732 10.66708189 5 13 C-1.435 13.495 -1.435 13.495 -8 14 C-7.67 14.66 -7.34 15.32 -7 16 C-3.28400809 16.20086443 -2.22791555 16.1519437 1 14 C2.32 15.32 3.64 16.64 5 18 C2.73238447 21.02348737 1.37533971 22.70689482 -2.3828125 23.5078125 C-7.05655368 23.71708449 -9.28197654 23.55683452 -13.0625 20.625 C-16.42515219 16.06914865 -16.52938751 12.55375622 -16 7 C-14.685365 3.81719947 -13.41063565 2.35197341 -10.8125 0.125 C-6.95125166 -1.41949934 -3.96781517 -1.09571465 0 0 Z M-8 6 C-8 6.66 -8 7.32 -8 8 C-6.02 8 -4.04 8 -2 8 C-2.66 7.01 -3.32 6.02 -4 5 C-6.0745356 4.8509288 -6.0745356 4.8509288 -8 6 Z " fill="#191919" transform="translate(243,238)"/>
<path d="M0 0 C3 2 3 2 3.6796875 3.61328125 C4.15242171 7.13572762 4.1439138 10.64116189 4.125 14.1875 C4.13080078 15.29254883 4.13080078 15.29254883 4.13671875 16.41992188 C4.12668491 21.87331509 4.12668491 21.87331509 3 23 C1.00041636 23.04080783 -1.00045254 23.04254356 -3 23 C-4.18681726 19.43954823 -4.09689832 16.56191663 -4.0625 12.8125 C-4.05347656 11.54019531 -4.04445313 10.26789063 -4.03515625 8.95703125 C-4.02355469 7.98121094 -4.01195312 7.00539062 -4 6 C-5.65 6.66 -7.3 7.32 -9 8 C-9.06058594 8.99902344 -9.12117188 9.99804688 -9.18359375 11.02734375 C-9.26738281 12.31769531 -9.35117187 13.60804688 -9.4375 14.9375 C-9.51871094 16.22527344 -9.59992188 17.51304687 -9.68359375 18.83984375 C-10 22 -10 22 -11 23 C-13.5 23.125 -13.5 23.125 -16 23 C-17 22 -17 22 -17.11352539 19.86694336 C-17.10828857 18.95050049 -17.10305176 18.03405762 -17.09765625 17.08984375 C-17.09443359 16.10048828 -17.09121094 15.11113281 -17.08789062 14.09179688 C-17.07951172 13.05087891 -17.07113281 12.00996094 -17.0625 10.9375 C-17.05798828 9.89271484 -17.05347656 8.84792969 -17.04882812 7.77148438 C-17.03699913 5.1809334 -17.02051689 2.59049441 -17 0 C-14.02148438 0.04882812 -14.02148438 0.04882812 -11.04296875 0.09765625 C-1.55328635 -0.35596146 -1.55328635 -0.35596146 0 0 Z " fill="#1B1B1B" transform="translate(296,238)"/>
<path d="M0 0 C4.26157647 0.0558529 5.3338433 0.16164777 8.8125 2.875 C9.43125 3.720625 10.05 4.56625 10.6875 5.4375 C11.0175 5.7675 11.3475 6.0975 11.6875 6.4375 C11.75955511 8.12358966 11.77136068 9.81250659 11.75 11.5 C11.74097656 12.41910156 11.73195313 13.33820313 11.72265625 14.28515625 C11.71105469 14.99542969 11.69945312 15.70570313 11.6875 16.4375 C12.3475 16.7675 13.0075 17.0975 13.6875 17.4375 C12.3675 20.0775 11.0475 22.7175 9.6875 25.4375 C9.0275 25.4375 8.3675 25.4375 7.6875 25.4375 C7.6875 26.0975 7.6875 26.7575 7.6875 27.4375 C3.74773257 31.16278152 -0.49993005 32.83545894 -5.875 33.125 C-10.70585894 32.87674753 -13.60512565 31.73284016 -17.00390625 28.28515625 C-19.82460596 24.30249666 -20.54537481 20.30049852 -19.9375 15.4375 C-19.73125 14.7775 -19.525 14.1175 -19.3125 13.4375 C-18.6525 13.4375 -17.9925 13.4375 -17.3125 13.4375 C-17.02375 12.633125 -16.735 11.82875 -16.4375 11 C-15.3125 8.4375 -15.3125 8.4375 -13.3125 7.4375 C-13.34730469 8.15035156 -13.38210938 8.86320313 -13.41796875 9.59765625 C-13.58966084 15.6722858 -13.54526518 20.19819092 -10.3125 25.4375 C-7.25176555 27.53628934 -4.77390089 27.54612484 -1.1875 27.25 C3.06590866 26.45416385 3.06590866 26.45416385 5.6875 23.4375 C7.43881591 18.18355226 7.5773402 12.57311649 5.4375 7.4375 C1.81722532 3.30004322 -1.97056368 3.05387727 -7.3125 2.4375 C-4.74661548 -0.12838452 -3.56783131 0.0820746 0 0 Z " fill="#232323" transform="translate(355.3125,232.5625)"/>
<path d="M0 0 C1.75 0.75 1.75 0.75 2.75 1.75 C3.08243079 6.48225005 2.93893275 11.14288558 1.75 15.75 C5.6181789 11.8818211 6.24715155 8.98826254 6.4765625 3.73828125 C6.75 1.75 6.75 1.75 8.75 -0.25 C11.375 0.125 11.375 0.125 13.75 0.75 C10.83171727 11.80875562 3.51919572 21.66704793 -6.13671875 27.984375 C-10.15076697 29.89668561 -13.87407835 30.01791357 -18.25 29.75 C-18.875 27.875 -18.875 27.875 -19.25 25.75 C-18.59 25.09 -17.93 24.43 -17.25 23.75 C-15.0859375 23.7734375 -15.0859375 23.7734375 -12.625 24.125 C-11.39910156 24.29128906 -11.39910156 24.29128906 -10.1484375 24.4609375 C-9.52195312 24.55632812 -8.89546875 24.65171875 -8.25 24.75 C-5.48918163 18.3881142 -4.61823999 12.65767437 -4.25 5.75 C-5.24 5.75 -6.23 5.75 -7.25 5.75 C-7.25 4.76 -7.25 3.77 -7.25 2.75 C-4.72924627 0.78941377 -3.24243997 -0.36027111 0 0 Z " fill="#1C1C1C" transform="translate(412.25,243.25)"/>
<path d="M0 0 C2.7415171 2.35897983 4.26702231 3.99805206 5.6875 7.3125 C5.875 10.625 5.875 10.625 5.6875 13.3125 C6.574375 12.796875 7.46125 12.28125 8.375 11.75 C11.88773331 10.2256063 13.13456507 10.16302105 16.6875 11.3125 C17.1825 12.7975 17.1825 12.7975 17.6875 14.3125 C18.574375 13.631875 19.46125 12.95125 20.375 12.25 C23.6875 10.3125 23.6875 10.3125 26.5625 10.5625 C27.614375 10.93375 27.614375 10.93375 28.6875 11.3125 C29.1825 12.7975 29.1825 12.7975 29.6875 14.3125 C28.6975 14.8075 28.6975 14.8075 27.6875 15.3125 C27.0275 14.3225 26.3675 13.3325 25.6875 12.3125 C25.0275 12.6425 24.3675 12.9725 23.6875 13.3125 C24.1825 14.3025 24.1825 14.3025 24.6875 15.3125 C23.841875 15.6425 22.99625 15.9725 22.125 16.3125 C15.78082295 20.00365756 11.53659451 25.6087482 8.6875 32.3125 C7.0375 32.3125 5.3875 32.3125 3.6875 32.3125 C2.6875 29.3125 2.6875 29.3125 4.12109375 26.17578125 C4.77885973 24.9864872 5.44727815 23.80303629 6.125 22.625 C6.46337891 22.01849609 6.80175781 21.41199219 7.15039062 20.78710938 C7.98707915 19.2904975 8.83612831 17.80080811 9.6875 16.3125 C7.7075 16.3125 5.7275 16.3125 3.6875 16.3125 C3.67332031 15.64863281 3.65914063 14.98476562 3.64453125 14.30078125 C3.40913496 9.94276882 3.08632149 6.97720248 0.8125 3.1875 C-3.79916853 0.42049888 -8.06502297 0.89895102 -13.3125 1.3125 C-13.3125 1.9725 -13.3125 2.6325 -13.3125 3.3125 C-14.96321396 4.33861949 -16.63220006 5.33558143 -18.3125 6.3125 C-20.06399165 7.89495275 -20.06399165 7.89495275 -21.3125 9.3125 C-21.6425 8.9825 -21.9725 8.6525 -22.3125 8.3125 C-23.6325 9.9625 -24.9525 11.6125 -26.3125 13.3125 C-25.27347462 7.86657389 -21.88417099 4.13122814 -17.41796875 0.97265625 C-11.47358899 -2.32196054 -6.26978438 -3.1940411 0 0 Z " fill="#2D2D2D" transform="translate(363.3125,232.6875)"/>
<path d="M0 0 C1.98 0 3.96 0 6 0 C6 1.65 6 3.3 6 5 C7.98 5 9.96 5 12 5 C12 6.98 12 8.96 12 11 C10.02 11 8.04 11 6 11 C6.33 14.3 6.66 17.6 7 21 C8.65 21.33 10.3 21.66 12 22 C12.625 23.875 12.625 23.875 13 26 C10.59653621 28.40346379 9.86099805 28.32083747 6.5625 28.375 C5.78003906 28.40335937 4.99757813 28.43171875 4.19140625 28.4609375 C2 28 2 28 0.2265625 26.3984375 C-1.40383246 23.21034034 -1.29434152 20.81138388 -1.1875 17.25 C-1.16042969 16.07953125 -1.13335937 14.9090625 -1.10546875 13.703125 C-1.07066406 12.81109375 -1.03585938 11.9190625 -1 11 C-2.32 10.67 -3.64 10.34 -5 10 C-4.625 7.5625 -4.625 7.5625 -4 5 C-3.34 4.67 -2.68 4.34 -2 4 C-0.86649466 1.98330173 -0.86649466 1.98330173 0 0 Z " fill="#191919" transform="translate(253,233)"/>
<path d="M0 0 C4.95 0 9.9 0 15 0 C14.67 1.98 14.34 3.96 14 6 C11.92446352 6.5534764 10.15634036 7 8 7 C7.67 12.28 7.34 17.56 7 23 C5.02 23 3.04 23 1 23 C0 22 0 22 -0.11352539 19.86694336 C-0.10828857 18.95050049 -0.10305176 18.03405762 -0.09765625 17.08984375 C-0.09443359 16.10048828 -0.09121094 15.11113281 -0.08789062 14.09179688 C-0.07951172 13.05087891 -0.07113281 12.00996094 -0.0625 10.9375 C-0.05798828 9.89271484 -0.05347656 8.84792969 -0.04882812 7.77148438 C-0.03699927 5.18096546 -0.01906319 2.59047578 0 0 Z " fill="#181818" transform="translate(190,238)"/>
<path d="M0 0 C3 0.125 3 0.125 4 1.125 C4.09899523 2.67455559 4.13079524 4.22853673 4.1328125 5.78125 C4.13474609 7.19083984 4.13474609 7.19083984 4.13671875 8.62890625 C4.13285156 9.61761719 4.12898438 10.60632813 4.125 11.625 C4.12886719 12.61371094 4.13273437 13.60242188 4.13671875 14.62109375 C4.13542969 15.56082031 4.13414062 16.50054687 4.1328125 17.46875 C4.13168457 18.33693359 4.13055664 19.20511719 4.12939453 20.09960938 C4 22.125 4 22.125 3 23.125 C0 23.25 0 23.25 -3 23.125 C-4.62200515 21.50299485 -4.1299075 19.70476969 -4.1328125 17.46875 C-4.13410156 16.52902344 -4.13539063 15.58929688 -4.13671875 14.62109375 C-4.13285156 13.63238281 -4.12898438 12.64367187 -4.125 11.625 C-4.12886719 10.63628906 -4.13273437 9.64757812 -4.13671875 8.62890625 C-4.13542969 7.68917969 -4.13414062 6.74945313 -4.1328125 5.78125 C-4.13168457 4.91306641 -4.13055664 4.04488281 -4.12939453 3.15039062 C-3.91897436 -0.14328062 -3.36486222 0.14020259 0 0 Z " fill="#202020" transform="translate(271,237.875)"/>
<path d="M0 0 C1.98 0 3.96 0 6 0 C6.81943398 5.00765211 7.13508122 9.78398608 7.125 14.875 C7.12757813 16.19242188 7.13015625 17.50984375 7.1328125 18.8671875 C7 22 7 22 6 23 C3.5 23.125 3.5 23.125 1 23 C0 22 0 22 -0.11352539 19.86694336 C-0.10828857 18.95050049 -0.10305176 18.03405762 -0.09765625 17.08984375 C-0.09443359 16.10048828 -0.09121094 15.11113281 -0.08789062 14.09179688 C-0.07951172 13.05087891 -0.07113281 12.00996094 -0.0625 10.9375 C-0.05798828 9.89271484 -0.05347656 8.84792969 -0.04882812 7.77148438 C-0.03699913 5.1809334 -0.02051689 2.59049441 0 0 Z " fill="#151515" transform="translate(279,238)"/>
<path d="M0 0 C1.75 0.75 1.75 0.75 2.75 1.75 C3.08243079 6.48225005 2.93893275 11.14288558 1.75 15.75 C5.6181789 11.8818211 6.24715155 8.98826254 6.4765625 3.73828125 C6.75 1.75 6.75 1.75 8.75 -0.25 C11.375 0.125 11.375 0.125 13.75 0.75 C11.22179323 10.33057304 6.59503921 16.77282727 -1.25 22.75 C-2.67205382 19.90589237 -1.53461938 18.1219686 -0.73046875 15.19140625 C0.14400845 10.74792456 -0.10083102 6.25821809 -0.25 1.75 C-1.24 1.75 -2.23 1.75 -3.25 1.75 C-3.58 3.07 -3.91 4.39 -4.25 5.75 C-5.24 5.75 -6.23 5.75 -7.25 5.75 C-7.25 4.76 -7.25 3.77 -7.25 2.75 C-4.72924627 0.78941377 -3.24243997 -0.36027111 0 0 Z " fill="#363636" transform="translate(412.25,243.25)"/>
<path d="M0 0 C2 1 2 1 2.76953125 3.24609375 C3.0516824 6.61756086 2.30247836 8.11914508 0.6875 11.0625 C0.23761719 11.89910156 -0.21226562 12.73570312 -0.67578125 13.59765625 C-1.11277344 14.39042969 -1.54976563 15.18320312 -2 16 C-2.6729612 17.33016745 -3.34199716 18.66236982 -4 20 C-5.65 20 -7.3 20 -9 20 C-9.91204229 14.22373217 -7.37853425 10.88987452 -4.3125 6.26953125 C-2.74968746 4.00412163 -2.74968746 4.00412163 -3 1 C-2.01 0.67 -1.02 0.34 0 0 Z " fill="#1C1C1C" transform="translate(389,244)"/>
<path d="M0 0 C2.64 0.33 5.28 0.66 8 1 C8 1.33 8 1.66 8 2 C6.02 2 4.04 2 2 2 C2 10.58 2 19.16 2 28 C2.99 28 3.98 28 5 28 C5 22.39 5 16.78 5 11 C5.99 11 6.98 11 8 11 C8.66 13.31 9.32 15.62 10 18 C9.34 18.33 8.68 18.66 8 19 C7.67 17.68 7.34 16.36 7 15 C7.01160156 15.99902344 7.02320313 16.99804688 7.03515625 18.02734375 C7.04417969 19.31769531 7.05320313 20.60804688 7.0625 21.9375 C7.07410156 23.22527344 7.08570313 24.51304687 7.09765625 25.83984375 C7 29 7 29 6 30 C3.5 30.125 3.5 30.125 1 30 C0 29 0 29 -0.11352539 26.22436523 C-0.10828857 25.01466064 -0.10305176 23.80495605 -0.09765625 22.55859375 C-0.09443359 21.25341797 -0.09121094 19.94824219 -0.08789062 18.60351562 C-0.07953401 17.2148431 -0.07106905 15.82617123 -0.0625 14.4375 C-0.05748666 13.04492344 -0.05292347 11.65234519 -0.04882812 10.25976562 C-0.03699434 6.8398013 -0.0205088 3.41992156 0 0 Z " fill="#0C0C0C" transform="translate(132,231)"/>
<path d="M0 0 C4.26157647 0.0558529 5.3338433 0.16164777 8.8125 2.875 C9.43125 3.720625 10.05 4.56625 10.6875 5.4375 C11.0175 5.7675 11.3475 6.0975 11.6875 6.4375 C11.75955511 8.12358966 11.77136068 9.81250659 11.75 11.5 C11.74097656 12.41910156 11.73195313 13.33820313 11.72265625 14.28515625 C11.71105469 14.99542969 11.69945312 15.70570313 11.6875 16.4375 C12.3475 16.7675 13.0075 17.0975 13.6875 17.4375 C12.6975 17.7675 11.7075 18.0975 10.6875 18.4375 C9.47867904 20.43766466 9.47867904 20.43766466 8.6875 22.4375 C8.69910156 21.77363281 8.71070313 21.10976562 8.72265625 20.42578125 C8.99325002 13.81776025 8.99325002 13.81776025 7.6875 7.4375 C5.88822961 6.16260734 5.88822961 6.16260734 3.6875 5.4375 C3.089375 5.086875 2.49125 4.73625 1.875 4.375 C-1.12162721 3.0907312 -4.09013576 2.80931126 -7.3125 2.4375 C-4.74661548 -0.12838452 -3.56783131 0.0820746 0 0 Z " fill="#1D1D1D" transform="translate(355.3125,232.5625)"/>
<path d="M0 0 C0.66 0 1.32 0 2 0 C2 8.91 2 17.82 2 27 C2.99 27 3.98 27 5 27 C5 24.36 5 21.72 5 19 C5.99 19 6.98 19 8 19 C9.38671875 20.53125 9.38671875 20.53125 10.6875 22.5 C11.12449219 23.1496875 11.56148437 23.799375 12.01171875 24.46875 C12.33785156 24.9740625 12.66398438 25.479375 13 26 C12.01 26 11.02 26 10 26 C9.34 25.01 8.68 24.02 8 23 C7.34 24.98 6.68 26.96 6 29 C4.33388095 29.042721 2.66617115 29.04063832 1 29 C0 28 0 28 -0.11352539 25.31616211 C-0.10828857 24.14835205 -0.10305176 22.98054199 -0.09765625 21.77734375 C-0.09443359 20.51728516 -0.09121094 19.25722656 -0.08789062 17.95898438 C-0.07953403 16.61848891 -0.07106907 15.27799412 -0.0625 13.9375 C-0.0574866 12.59310058 -0.05292342 11.2486994 -0.04882812 9.90429688 C-0.03699488 6.60282059 -0.02050971 3.30143197 0 0 Z " fill="#0F0F0F" transform="translate(207,232)"/>
<path d="M0 0 C2.26562673 2.26562673 2.94462749 3.84160705 3.09765625 7.04296875 C3.06510417 9.02864583 3.03255208 11.01432292 3 13 C3.33 12.34 3.66 11.68 4 11 C4.66 11.33 5.32 11.66 6 12 C5.01 13.98 4.02 15.96 3 18 C2.34 18 1.68 18 1 18 C1 18.66 1 19.32 1 20 C-3.19599441 23.96755919 -7.28114898 25.33469476 -13 25.3125 C-14.66803371 25.23317774 -16.33576552 25.13766646 -18 25 C-18.33 24.34 -18.66 23.68 -19 23 C-18.30132812 23.03480469 -17.60265625 23.06960938 -16.8828125 23.10546875 C-15.97273438 23.13253906 -15.06265625 23.15960938 -14.125 23.1875 C-13.22007812 23.22230469 -12.31515625 23.25710938 -11.3828125 23.29296875 C-10.59648437 23.19628906 -9.81015625 23.09960938 -9 23 C-8.34 22.01 -7.68 21.02 -7 20 C-6.175 19.525625 -5.35 19.05125 -4.5 18.5625 C-1.66857689 16.79286056 -1.12804835 16.07884755 0 13 C0.24143666 9.72057242 0.24143666 9.72057242 0.125 6.25 C0.09792969 4.49429688 0.09792969 4.49429688 0.0703125 2.703125 C0.04710937 1.81109375 0.02390625 0.9190625 0 0 Z " fill="#363636" transform="translate(362,240)"/>
<path d="M0 0 C0.66 0 1.32 0 2 0 C1.67 2.31 1.34 4.62 1 7 C1.99 7 2.98 7 4 7 C-1.68967564 11.87686484 -5.47323179 13.29516738 -13 13 C-13.625 11.125 -13.625 11.125 -14 9 C-13.34 8.34 -12.68 7.68 -12 7 C-9.8359375 7.0234375 -9.8359375 7.0234375 -7.375 7.375 C-6.55773437 7.48585938 -5.74046875 7.59671875 -4.8984375 7.7109375 C-3.95871094 7.85402344 -3.95871094 7.85402344 -3 8 C-2.01 5.36 -1.02 2.72 0 0 Z " fill="#3B3B3B" transform="translate(407,260)"/>
<path d="M0 0 C0.33 1.32 0.66 2.64 1 4 C-2.68087353 6.45391569 -5.44355588 6.22802759 -9.6875 6.125 C-10.7403418 6.11146484 -10.7403418 6.11146484 -11.81445312 6.09765625 C-13.54311525 6.07413704 -15.27160145 6.03826713 -17 6 C-11.83942378 0.56316167 -7.44121698 -0.29764868 0 0 Z " fill="#555555" transform="translate(423,231)"/>
<path d="M0 0 C0.99 0.33 1.98 0.66 3 1 C1.35318934 6.25577871 -0.5331882 11.0663764 -3 16 C-3.69907414 18.73572585 -3.69907414 18.73572585 -4 21 C-5.65 21 -7.3 21 -9 21 C-7.3312285 16.6331213 -5.24379602 12.60702154 -3.0234375 8.5 C-1.91810379 5.79994818 -1.80404021 3.88782841 -2 1 C-1.34 0.67 -0.68 0.34 0 0 Z " fill="#1A1A1A" transform="translate(376,244)"/>
<path d="M0 0 C0.66 0.495 1.32 0.99 2 1.5 C1.67 2.16 1.34 2.82 1 3.5 C0.01 2.84 -0.98 2.18 -2 1.5 C-4.74518321 1.25812349 -4.74518321 1.25812349 -7.6875 1.375 C-8.68136719 1.39304688 -9.67523438 1.41109375 -10.69921875 1.4296875 C-11.45847656 1.45289063 -12.21773438 1.47609375 -13 1.5 C-13 2.16 -13 2.82 -13 3.5 C-14.65071396 4.52611949 -16.31970006 5.52308143 -18 6.5 C-19.75149165 8.08245275 -19.75149165 8.08245275 -21 9.5 C-21.33 9.17 -21.66 8.84 -22 8.5 C-23.32 10.15 -24.64 11.8 -26 13.5 C-24.96097462 8.05407389 -21.57167099 4.31872814 -17.10546875 1.16015625 C-11.39773527 -2.00330155 -6.06121366 -3.03060683 0 0 Z " fill="#575757" transform="translate(363,232.5)"/>
<path d="M0 0 C0 3.85039411 -1.33826968 5.44120126 -3.375 8.6875 C-6.27016982 13.50108539 -8.04559878 17.48568181 -9 23 C-9.99 22.67 -10.98 22.34 -12 22 C-12.99 22.66 -13.98 23.32 -15 24 C-17.6875 24.125 -17.6875 24.125 -20 24 C-19 22 -19 22 -16 21 C-15.505 20.484375 -15.01 19.96875 -14.5 19.4375 C-13 18 -13 18 -10 18 C-9.731875 17.29230469 -9.46375 16.58460938 -9.1875 15.85546875 C-7.95530903 12.89253587 -6.53682238 10.128727 -5 7.3125 C-4.484375 6.35988281 -3.96875 5.40726563 -3.4375 4.42578125 C-2 2 -2 2 0 0 Z " fill="#2F2F2F" transform="translate(401,241)"/>
<path d="M0 0 C0.99 0 1.98 0 3 0 C3 5.94 3 11.88 3 18 C4.65 18 6.3 18 8 18 C7.67 18.66 7.34 19.32 7 20 C5.02 20 3.04 20 1 20 C0.67 15.71 0.34 11.42 0 7 C-0.66 7 -1.32 7 -2 7 C-1.34 4.69 -0.68 2.38 0 0 Z " fill="#0D0D0D" transform="translate(155,241)"/>
<path d="M0 0 C2.625 0.375 2.625 0.375 5 1 C4.01 3.97 3.02 6.94 2 10 C0.68 10 -0.64 10 -2 10 C-2.1953125 3.9453125 -2.1953125 3.9453125 -2 2 C-1.34 1.34 -0.68 0.68 0 0 Z " fill="#3A3A3A" transform="translate(421,243)"/>
<path d="M0 0 C2.625 0.375 2.625 0.375 5 1 C5.625 3.375 5.625 3.375 6 6 C5.34 6.66 4.68 7.32 4 8 C0.875 7.625 0.875 7.625 -2 7 C-2.125 4.625 -2.125 4.625 -2 2 C-1.34 1.34 -0.68 0.68 0 0 Z " fill="#1B1B1B" transform="translate(269,229)"/>
<path d="M0 0 C1.98 0 3.96 0 6 0 C5.67 1.32 5.34 2.64 5 4 C5 3.34 5 2.68 5 2 C3.68 1.67 2.36 1.34 1 1 C1 1.99 1 2.98 1 4 C0.07767578 4.05607422 0.07767578 4.05607422 -0.86328125 4.11328125 C-1.67152344 4.17902344 -2.47976563 4.24476563 -3.3125 4.3125 C-4.11300781 4.37050781 -4.91351563 4.42851562 -5.73828125 4.48828125 C-8.42130337 5.0953208 -9.35584035 5.82148846 -11 8 C-11.7269226 11.10839021 -11.7269226 11.10839021 -12 14 C-12.33 14 -12.66 14 -13 14 C-13.48209366 7.73278237 -13.48209366 7.73278237 -11.4375 4.625 C-8.28388966 2.52259311 -5.75406042 2.20855891 -2 2 C-1.34 2.33 -0.68 2.66 0 3 C0 2.01 0 1.02 0 0 Z " fill="#2F2F2F" transform="translate(317,235)"/>
<path d="M0 0 C1.26120854 3.78362561 0.25482572 5.31394946 -1 9 C-0.67 9.66 -0.34 10.32 0 11 C-0.33 11.66 -0.66 12.32 -1 13 C-2.32 13 -3.64 13 -5 13 C-4.64989059 4.80743982 -4.64989059 4.80743982 -1.9375 1.4375 C-1.298125 0.963125 -0.65875 0.48875 0 0 Z " fill="#1A1A1A" transform="translate(397,252)"/>
<path d="M0 0 C0.680625 0.268125 1.36125 0.53625 2.0625 0.8125 C2.3925 1.8025 2.7225 2.7925 3.0625 3.8125 C2.0725 4.3075 2.0725 4.3075 1.0625 4.8125 C0.4025 3.8225 -0.2575 2.8325 -0.9375 1.8125 C-1.9275 2.3075 -1.9275 2.3075 -2.9375 2.8125 C-2.6075 3.4725 -2.2775 4.1325 -1.9375 4.8125 C-2.865625 5.26625 -3.79375 5.72 -4.75 6.1875 C-7.97671389 7.7546633 -7.97671389 7.7546633 -10.9375 9.8125 C-10.85825743 7.03901006 -10.45279957 5.33891115 -8.48828125 3.33203125 C-3.86685112 -0.24682028 -3.86685112 -0.24682028 0 0 Z " fill="#474747" transform="translate(389.9375,243.1875)"/>
<path d="M0 0 C0.66 0.33 1.32 0.66 2 1 C1.04908327 3.50696229 0.06198622 4.94401245 -1.9375 6.75 C-6.55953986 8.63654688 -11.07123991 8.23305871 -16 8 C-16.33 7.34 -16.66 6.68 -17 6 C-16.30132812 6.03480469 -15.60265625 6.06960938 -14.8828125 6.10546875 C-13.97273438 6.13253906 -13.06265625 6.15960938 -12.125 6.1875 C-11.22007812 6.22230469 -10.31515625 6.25710938 -9.3828125 6.29296875 C-8.59648437 6.19628906 -7.81015625 6.09960938 -7 6 C-6.34 5.01 -5.68 4.02 -5 3 C-2.5 1.25 -2.5 1.25 0 0 Z " fill="#3B3B3B" transform="translate(360,257)"/>
<path d="M0 0 C0.99 0 1.98 0 3 0 C1.59928507 5.29158974 -1.85487245 7.77478044 -6 11 C-6.33 10.34 -6.66 9.68 -7 9 C-5.90751403 7.49147143 -4.80061501 5.99337169 -3.6875 4.5 C-3.07261719 3.6646875 -2.45773437 2.829375 -1.82421875 1.96875 C-1.22222656 1.3190625 -0.62023437 0.669375 0 0 Z " fill="#616161" transform="translate(419,253)"/>
<path d="M0 0 C2.97 0 5.94 0 9 0 C9 0.99 9 1.98 9 3 C6.26094655 4.36952673 4.02912668 4.12621361 1 4 C0.34 3.67 -0.32 3.34 -1 3 C-0.67 2.01 -0.34 1.02 0 0 Z " fill="#212121" transform="translate(414,233)"/>
<path d="M0 0 C0.66 0 1.32 0 2 0 C1.67 2.31 1.34 4.62 1 7 C1.99 7 2.98 7 4 7 C0.71195019 9.91227269 -1.59885603 11.49701212 -6 12 C-5 9 -5 9 -2 7 C-0.7811879 3.44327821 -0.7811879 3.44327821 0 0 Z " fill="#494949" transform="translate(407,260)"/>
<path d="M0 0 C1.32 0.66 2.64 1.32 4 2 C3.67 3.65 3.34 5.3 3 7 C1.35 7 -0.3 7 -2 7 C-2.125 4.625 -2.125 4.625 -2 2 C-1.34 1.34 -0.68 0.68 0 0 Z " fill="#313131" transform="translate(423,258)"/>
<path d="M0 0 C0.99 0.495 0.99 0.495 2 1 C2.31241371 3.54941373 2.51303421 6.00361513 2.625 8.5625 C2.66367188 9.27341797 2.70234375 9.98433594 2.7421875 10.71679688 C2.83671783 12.47742425 2.91945817 14.23867728 3 16 C2.01 16 1.02 16 0 16 C0 10.72 0 5.44 0 0 Z " fill="#0C0C0C" transform="translate(212,231)"/>
<path d="M0 0 C0.66 0.33 1.32 0.66 2 1 C2 4.3 2 7.6 2 11 C1.01 11 0.02 11 -1 11 C-1.33 7.7 -1.66 4.4 -2 1 C-1.34 0.67 -0.68 0.34 0 0 Z " fill="#161616" transform="translate(411,244)"/>
<path d="M0 0 C2.475 0.495 2.475 0.495 5 1 C5 5.29 5 9.58 5 14 C3 12 3 12 2.8046875 9.6171875 C2.83949219 8.25980469 2.83949219 8.25980469 2.875 6.875 C2.89304688 5.96492187 2.91109375 5.05484375 2.9296875 4.1171875 C2.95289063 3.41851562 2.97609375 2.71984375 3 2 C2.01 2 1.02 2 0 2 C0 1.34 0 0.68 0 0 Z " fill="#0E0E0E" transform="translate(249,242)"/>
<path d="M0 0 C1 3 1 3 -0.4375 6.1875 C-1.2109375 7.5796875 -1.2109375 7.5796875 -2 9 C-0.68 8.67 0.64 8.34 2 8 C0.63016497 11.16115776 0.0109362 11.9927092 -3 14 C-4.26332183 9.78892722 -4.00441956 7.4543291 -2.0625 3.625 C-1.39025121 2.40811576 -0.70765749 1.1966397 0 0 Z " fill="#3E3E3E" transform="translate(399,251)"/>
<path d="M0 0 C0.66 0.66 1.32 1.32 2 2 C1.34 2 0.68 2 0 2 C-0.2475 2.680625 -0.495 3.36125 -0.75 4.0625 C-2.24197908 7.56865083 -4.06835511 10.71620368 -6 14 C-6.33 13.34 -6.66 12.68 -7 12 C-6.22265625 10.16015625 -6.22265625 10.16015625 -5.0625 8.0625 C-3.5451154 5.31063302 -3 4.22211537 -3 1 C-2.01 0.67 -1.02 0.34 0 0 Z " fill="#363636" transform="translate(408,236)"/>
<path d="M0 0 C-0.75 5.75 -0.75 5.75 -3 8 C-3.66 7.67 -4.32 7.34 -5 7 C-5.1875 4.625 -5.1875 4.625 -5 2 C-2 0 -2 0 0 0 Z " fill="#1B1B1B" transform="translate(424,244)"/>
<path d="M0 0 C1.65 0.33 3.3 0.66 5 1 C5.33 2.98 5.66 4.96 6 7 C5.01 7 4.02 7 3 7 C3 5.68 3 4.36 3 3 C1.35 3 -0.3 3 -2 3 C-1.34 2.01 -0.68 1.02 0 0 Z " fill="#0C0C0C" transform="translate(311,241)"/>
<path d="M0 0 C2.97 0.33 5.94 0.66 9 1 C9.33 2.32 9.66 3.64 10 5 C9.01 5 8.02 5 7 5 C7.33 4.01 7.66 3.02 8 2 C7.05125 2.04125 6.1025 2.0825 5.125 2.125 C2 2 2 2 0 0 Z " fill="#0C0C0C" transform="translate(309,259)"/>
<path d="M0 0 C-0.33 0.66 -0.66 1.32 -1 2 C-1.99 2.33 -2.98 2.66 -4 3 C-4 3.66 -4 4.32 -4 5 C-5.65 5 -7.3 5 -9 5 C-8 2 -8 2 -6.1875 0.8125 C-4 0 -4 0 0 0 Z " fill="#3C3C3C" transform="translate(379,243)"/>
<path d="M0 0 C0.66 0.33 1.32 0.66 2 1 C1.34 2.32 0.68 3.64 0 5 C-4 5 -4 5 -6 4 C-4.02 2.68 -2.04 1.36 0 0 Z " fill="#636363" transform="translate(360,257)"/>
<path d="M0 0 C2.64 0.33 5.28 0.66 8 1 C4.77208445 3.1519437 3.71599191 3.20086443 0 3 C0 2.01 0 1.02 0 0 Z " fill="#141414" transform="translate(395,269)"/>
<path d="M0 0 C0.99 0.66 1.98 1.32 3 2 C0.64031256 4.09749995 -0.54616994 4.96905704 -3.75 5.1875 C-4.86375 5.0946875 -4.86375 5.0946875 -6 5 C-5 3 -5 3 -2 2 C-1.34 1.34 -0.68 0.68 0 0 Z " fill="#3A3A3A" transform="translate(387,260)"/>
</svg>
